<svg xmlns="http://www.w3.org/2000/svg" xmlns:xlink="http://www.w3.org/1999/xlink" width="20" height="22" viewBox="0 0 20 22"><defs><path id="tnh8a" d="M1195.622 499.488a1.838 1.838 0 1 1 .003-3.676 1.838 1.838 0 0 1-.003 3.676c-1.014 0 0 0 0 0zm-13.246-7.646a1.84 1.84 0 0 1-1.838-1.838c0-1.014.826-1.84 1.838-1.84a1.839 1.839 0 0 1 0 3.678c-1.015 0 0 0 0 0zm11.41-9.488a1.839 1.839 0 0 1 3.675 0c0 1.015-.824 1.84-1.839 1.84-1.014 0 0 0 0 0a1.84 1.84 0 0 1-1.836-1.84zm1.836-3.374a3.379 3.379 0 0 0-3.375 3.374c0 .34.064.661.159.97l-7.575 4.373a3.364 3.364 0 0 0-2.455-1.07 3.38 3.38 0 0 0-3.376 3.377 3.381 3.381 0 0 0 3.376 3.377c.97 0 1.839-.416 2.455-1.072l7.575 4.374c-.095.309-.16.63-.16.97a3.38 3.38 0 0 0 3.376 3.374 3.38 3.38 0 0 0 3.378-3.375 3.382 3.382 0 0 0-3.378-3.377c-.969 0-1.836.416-2.452 1.072l-7.575-4.373c.092-.31.159-.631.159-.97 0-.339-.067-.662-.16-.97l7.575-4.375a3.36 3.36 0 0 0 2.453 1.073 3.381 3.381 0 0 0 3.378-3.378 3.38 3.38 0 0 0-3.378-3.374c-1.862 0 0 0 0 0z"/></defs><g><g transform="translate(-1179 -479)"><use fill="#cacaca" xlink:href="#tnh8a"/></g></g></svg>